<svg width="113" height="215" viewBox="0 0 113 215" fill="none" xmlns="http://www.w3.org/2000/svg">
<path d="M59.6258 12.2004L50.117 13.5277C42.6183 14.5744 37.4672 22.064 38.6109 30.2574L40.3859 42.9065C40.2238 42.8955 40.0594 42.8975 39.8936 42.9206C38.4577 43.121 37.6516 43.7887 37.8033 44.8757C38.0223 46.4443 38.9478 46.6992 40.3837 46.4988C40.5494 46.4757 40.7081 46.4325 40.861 46.3776L41.1972 48.7862C41.9758 54.3641 46.5804 56.5663 51.6858 55.8536L52.9035 55.6836C53.3811 55.617 54.1962 55.8033 54.4844 57.184L55.8097 66.6784L66.279 65.2171L64.3596 50.9028C72.1905 44.9816 76.828 36.2709 75.2743 25.1398C74.1296 16.9465 67.1244 11.1537 59.6258 12.2004Z" fill="#F9C78A"/>
<path d="M47.1511 47.5657C47.2642 48.3758 46.2812 49.1825 44.9555 49.3675C43.6297 49.5526 42.4634 49.0459 42.3504 48.2358L47.1511 47.5657Z" fill="white"/>
<path d="M50.7789 42.3047C50.8989 43.1642 49.7714 44.033 48.2614 44.2438C46.7503 44.4547 45.4292 43.9287 45.3091 43.0682C45.1891 42.2087 46.3166 41.3398 47.8266 41.1291C49.3366 40.9183 50.6588 41.4442 50.7789 42.3047Z" fill="#F7BA89"/>
<path d="M43.0834 34.6407C44.6447 34.279 46.1426 34.8003 47.0782 36.038C47.1924 36.1869 47.1328 36.3914 46.9476 36.4928C46.898 36.5207 46.8437 36.5378 46.7881 36.5455C46.6409 36.5661 46.4901 36.5158 46.4077 36.4066C45.6433 35.3957 44.4936 34.978 43.2552 35.2704C42.1493 35.5266 41.2758 36.2834 41.1788 37.0693C41.1568 37.2497 40.962 37.3881 40.7489 37.3801C40.5326 37.3715 40.3767 37.2169 40.3987 37.0365C40.5291 35.9784 41.6582 34.9708 43.0834 34.6407Z" fill="#DBA56A"/>
<path d="M44.2067 39.99C44.3235 40.8268 43.8859 41.5784 43.2282 41.6702C42.5715 41.7619 41.9446 41.1578 41.8279 40.322C41.7113 39.4862 42.1488 38.7336 42.8055 38.6419C43.4631 38.5491 44.0899 39.1531 44.2067 39.99Z" fill="#414143"/>
<path d="M55.1033 44.6257C54.9586 45.9724 55.0931 47.4395 55.6486 48.6831C56.9807 51.6632 60.2789 51.7684 62.9695 51.1294C65.3304 53.4506 69.5377 51.9798 69.6256 48.9631C72.1012 49.6785 76.0217 47.3631 74.8475 43.8153C78.1848 42.8321 82.0082 38.3927 78.0439 35.2449C79.5421 35.0095 81.0189 34.072 81.5212 32.5883C82.0235 31.1047 81.1964 29.1487 79.7007 28.8611C81.7859 26.997 82.9042 23.867 82.0558 21.1196C81.2076 18.3732 78.1732 16.4063 75.5363 17.2423C76.4695 15.9063 76.3996 13.9023 75.3745 12.6172C74.3503 11.332 72.4673 10.8854 71.0266 11.585C71.209 9.46394 68.5911 7.69177 66.813 8.7333C66.192 6.94579 64.5081 5.60258 62.6908 5.44594C60.8744 5.28916 59.0255 6.32694 58.1646 7.98549C57.7382 6.29885 56.1975 4.97446 54.5264 4.85828C52.8565 4.74298 51.1855 5.84511 50.583 7.46025C49.4265 5.72335 47.163 4.87345 45.2255 5.4503C43.2881 6.02716 41.8248 7.98597 41.7632 10.086C39.9006 9.12345 37.4156 9.79981 36.272 11.5828C35.1282 13.3648 35.472 16.0232 37.0331 17.457C34.2594 17.4706 32.1139 20.4733 32.2642 23.3548C32.5253 28.3449 36.2028 30.5138 40.4303 29.9237C42.983 29.5674 42.5993 28.4425 42.5993 28.4425C42.5993 28.4425 42.6293 30.9127 45.3149 31.5988C48.0005 32.2848 48.673 29.8026 48.673 29.8026C48.673 29.8026 49.0663 33.4321 53.4107 32.9432C53.5921 35.8593 53.912 37.3467 53.9126 37.3508C53.8434 37.0278 54.7366 36.0448 54.9157 35.8319C55.4175 35.2393 56.0983 34.5461 56.9183 34.5712C57.5906 34.5918 58.1612 35.1082 58.5681 35.6705C59.8832 37.4912 60.0549 40.0592 59.1893 42.1277C58.8499 42.9369 58.356 43.6911 57.6773 44.2192C57.1921 44.5997 55.5086 45.4695 55.1033 44.6257Z" fill="#C97445"/>
<path d="M68.6334 128.941C68.6334 128.941 96.9841 181.963 99.7526 201.216C104.462 202.302 107.202 202.129 110.371 202.752C107.757 191.451 100.176 171.725 94.4246 159.258C84.997 138.822 79.8472 124.315 79.8472 124.315L68.633 128.94L68.6334 128.941Z" fill="#74C9F7"/>
<path d="M110.414 200.539L110.455 206.98L110.367 212.888L110.353 213.889L88.6543 214.377C88.6543 214.377 88.6255 213.745 88.6029 213.017C88.5747 212.084 89.1321 211.304 89.8614 211.236C93.8626 210.865 97.0197 207.111 98.8792 204.227C99.511 203.246 99.6249 202.021 99.5914 201.083C99.5631 200.287 100.161 199.616 100.933 199.599L109.043 198.88C109.909 198.861 110.444 199.642 110.414 200.539Z" fill="#A5603D"/>
<path d="M95.7523 211.589C95.398 211.597 95.0431 211.488 94.7949 211.268L93.3541 210.344C92.9171 209.955 92.9808 209.368 93.4993 209.032C94.0115 208.694 94.7879 208.735 95.227 209.125L96.6678 210.049C97.1049 210.437 97.0411 211.025 96.5227 211.361C96.2993 211.508 96.0255 211.583 95.7523 211.589Z" fill="#824B2F"/>
<path d="M98.1846 209.258C97.8303 209.266 97.4754 209.156 97.2273 208.937L95.7865 208.013C95.3494 207.625 95.4132 207.038 95.9316 206.701C96.4438 206.363 97.2203 206.405 97.6594 206.794L99.1002 207.718C99.5372 208.107 99.4735 208.695 98.955 209.031C98.7317 209.178 98.4579 209.252 98.1846 209.258Z" fill="#824B2F"/>
<path d="M49.5177 73.9933C48.7993 71.1278 45.7454 69.4135 42.6965 70.165L40.0896 70.8078L13.911 77.2597C12.0147 77.727 10.8392 79.5514 11.2856 81.3334L12.2688 85.2572C12.7151 87.0392 14.6151 88.1051 16.5115 87.6378L45.2969 80.5431C48.3472 79.792 50.2362 76.8588 49.5177 73.9933Z" fill="#FD9809"/>
<path d="M109.543 203.385C109.226 203.628 108.833 203.762 108.468 203.722L106.571 203.82C105.927 203.749 105.613 203.16 105.87 202.504C106.122 201.849 106.854 201.372 107.501 201.443L109.398 201.345C110.042 201.416 110.357 202.005 110.1 202.661C109.99 202.947 109.788 203.198 109.543 203.385Z" fill="#824B2F"/>
<path d="M110.457 207.052L110.367 213.375C109.578 213.968 108.564 214.335 107.455 214.36C104.867 214.418 102.729 212.6 102.677 210.299C102.625 207.999 104.68 206.086 107.267 206.028C108.487 206 109.608 206.39 110.457 207.052Z" fill="#824B2F"/>
<path d="M110.592 214.289L88.4681 214.786C88.3674 214.788 88.2845 214.708 88.2822 214.607L88.2517 213.248C88.2494 213.148 88.3297 213.065 88.4294 213.062L110.554 212.566C110.654 212.563 110.738 212.644 110.741 212.743L110.771 214.102C110.772 214.203 110.693 214.287 110.592 214.289Z" fill="#D8C69A"/>
<path d="M86.044 131.517L53.807 138.138C52.6459 138.3 51.574 137.5 51.4135 136.35C51.4135 136.35 44.3033 95.5682 44.5726 80.1163C44.6964 73.0189 46.6753 69.4319 52.5608 66.0226L65.6826 64.191C72.7828 63.1999 76.639 66.9116 76.431 79.4576C76.3141 86.4838 77.7051 97.7793 78.4185 103.5C80.5589 120.66 87.8553 129.141 87.8553 129.141C88.0169 130.291 87.2051 131.354 86.044 131.517Z" fill="#FEAE3F"/>
<path d="M57.3652 67.9881C65.8034 67.1849 71.6269 75.2404 77.5408 72.8544C81.6873 71.1812 82.0635 67.2302 78.9343 62.3288C75.2291 56.9695 70.9523 56.7102 65.085 57.4074C53.3339 58.8042 42.2166 69.1928 46.1396 72.8344C47.5454 74.1398 51.4342 68.5526 57.3652 67.9881Z" fill="#FD9809"/>
<path d="M48.4484 68.58C48.5366 69.212 49.1259 69.6524 49.7651 69.5631C50.4043 69.4739 50.8505 68.889 50.7623 68.257C50.6741 67.625 50.0848 67.1847 49.4456 67.2739C48.8062 67.3621 48.3602 67.948 48.4484 68.58Z" fill="#D1D3D6"/>
<path d="M50.4563 92.0619C50.4882 92.0575 50.5208 92.0508 50.5539 92.0399C50.8717 91.941 51.0486 91.6067 50.9501 91.292C47.0868 78.9816 50.1838 68.9549 50.2161 68.8549C50.3158 68.5398 50.1392 68.2066 49.8222 68.1082C49.5041 68.0098 49.1667 68.186 49.0668 68.5001C48.9327 68.9228 45.825 78.9857 49.8006 91.6497C49.8893 91.9322 50.1701 92.1019 50.4563 92.0619Z" fill="white"/>
<path d="M79.974 65.5377C78.3541 63.066 74.9153 62.4644 72.295 64.1928L70.0539 65.6709L47.551 80.5114C45.9205 81.5865 45.416 83.7042 46.4237 85.2413L48.6413 88.6245C49.649 90.1616 51.7879 90.5364 53.417 89.4607L78.161 73.1422C80.7823 71.4133 81.5943 68.008 79.974 65.5377Z" fill="#FD9809"/>
<path d="M53.3012 84.7152C52.5827 81.8497 49.5288 80.1354 46.48 80.8869L43.873 81.5297L17.6945 87.9816C15.7982 88.449 14.6227 90.2733 15.069 92.0553L16.0522 95.9791C16.4986 97.7611 18.3986 98.827 20.2949 98.3597L49.0804 91.265C52.1306 90.514 54.0197 87.5808 53.3012 84.7152Z" fill="#FD9809"/>
<path d="M7.35628 98.7272C7.19632 98.2186 7.37072 97.7745 7.73269 97.4586L7.13467 97.653C6.51279 97.8554 5.7512 97.6523 5.5156 96.9047C5.35083 96.3812 5.63378 95.8095 6.16123 95.5174C5.56421 95.6388 4.92043 95.4028 4.70935 94.731C4.51833 94.1256 4.92557 93.4523 5.61857 93.2277L6.88151 92.8174L6.88022 92.8122L6.37298 92.9773C5.73286 93.1848 4.98424 92.9607 4.75391 92.229C4.56288 91.6236 4.97014 90.9502 5.66313 90.7256C6.82126 90.349 7.35563 90.1756 7.82917 90.022C7.68802 89.8508 7.6542 89.7288 7.6214 89.6259C7.43038 89.0205 7.83762 88.3472 8.53062 88.1226L11.2858 87.2275C11.9788 87.0029 13.942 86.8387 14.9571 88.5172L14.9511 88.519C16.2896 88.861 17.3783 89.767 17.7861 91.061L18.1327 92.1609C18.8076 94.3027 17.3676 96.6843 14.9152 97.4803C13.6503 97.8915 10.1287 99.0356 8.96217 99.4139L8.95842 99.4157C8.26311 99.6402 7.5473 99.3326 7.35628 98.7272Z" fill="#FAC78B"/>
<path d="M5.07112 89.2832C4.91117 88.7747 5.08557 88.3305 5.44753 88.0146L4.84951 88.2091C4.22763 88.4114 3.46604 88.2083 3.23045 87.4607C3.06568 86.9372 3.34862 86.3655 3.87607 86.0734C3.27905 86.1949 2.63527 85.9588 2.4242 85.287C2.23317 84.6816 2.64042 84.0083 3.33341 83.7837L4.59635 83.3734L4.59506 83.3683L4.08783 83.5334C3.44771 83.7409 2.69908 83.5167 2.46875 82.785C2.27773 82.1796 2.68498 81.5062 3.37798 81.2816C4.53611 80.9051 5.07048 80.7317 5.54402 80.578C5.40287 80.4069 5.36905 80.2849 5.33624 80.1819C5.14522 79.5765 5.55247 78.9032 6.24546 78.6786L9.00063 77.7836C9.69362 77.559 11.6569 77.3947 12.672 79.0733L12.6659 79.075C14.0044 79.417 15.0932 80.323 15.501 81.6171L15.8476 82.717C16.5225 84.8587 15.0824 87.2403 12.63 88.0363C11.3652 88.4475 7.84355 89.5917 6.67702 89.9699L6.67327 89.9717C5.97795 90.1963 5.26215 89.8886 5.07112 89.2832Z" fill="#FAC78B"/>
<path d="M70.4639 123.753L74.7366 121.877C76.361 121.163 77.0998 119.268 76.3865 117.644L71.907 107.441L61.7523 111.9L66.2319 122.102C66.9441 123.727 68.8395 124.466 70.4639 123.753Z" fill="#FD9809"/>
</svg>
