<svg width="128" height="49" viewBox="0 0 128 49" fill="none" xmlns="http://www.w3.org/2000/svg">
<path d="M127.515 43.1152L127.515 36.1303L13.3905 36.3988L13.3905 30.7571L0.000488645 39.0854L13.3905 48.7571L13.3905 43.1152L127.515 43.1152Z" fill="#FD9809"/>
<path d="M34.1445 14.4648H26.9844V22H24.7344V4.9375H35.3047V6.78906H26.9844V12.625H34.1445V14.4648Z" fill="#FD9809"/>
<path d="M41.7695 23.7578C41.7695 23.3672 41.6211 23.0651 41.3242 22.8516C41.0326 22.6328 40.5195 22.4453 39.7852 22.2891C39.056 22.1328 38.4753 21.9453 38.043 21.7266C37.6159 21.5078 37.2982 21.2474 37.0898 20.9453C36.8867 20.6432 36.7852 20.2839 36.7852 19.8672C36.7852 19.1745 37.0768 18.5885 37.6602 18.1094C38.2487 17.6302 38.9987 17.3906 39.9102 17.3906C40.8685 17.3906 41.6445 17.638 42.2383 18.1328C42.8372 18.6276 43.1367 19.2604 43.1367 20.0312H41.6836C41.6836 19.6354 41.5143 19.2943 41.1758 19.0078C40.8424 18.7214 40.4206 18.5781 39.9102 18.5781C39.3841 18.5781 38.9727 18.6927 38.6758 18.9219C38.3789 19.151 38.2305 19.4505 38.2305 19.8203C38.2305 20.1693 38.3685 20.4323 38.6445 20.6094C38.9206 20.7865 39.418 20.9557 40.1367 21.1172C40.8607 21.2786 41.4466 21.4714 41.8945 21.6953C42.3424 21.9193 42.6732 22.1901 42.8867 22.5078C43.1055 22.8203 43.2148 23.2031 43.2148 23.6562C43.2148 24.4115 42.9128 25.0182 42.3086 25.4766C41.7044 25.9297 40.9206 26.1562 39.957 26.1562C39.2799 26.1562 38.681 26.0365 38.1602 25.7969C37.6393 25.5573 37.2305 25.224 36.9336 24.7969C36.6419 24.3646 36.4961 23.8984 36.4961 23.3984H37.9414C37.9674 23.8828 38.1602 24.2682 38.5195 24.5547C38.8841 24.8359 39.3633 24.9766 39.957 24.9766C40.5039 24.9766 40.9414 24.8672 41.2695 24.6484C41.6029 24.4245 41.7695 24.1276 41.7695 23.7578ZM50.3164 25.1641C49.7539 25.8255 48.9284 26.1562 47.8398 26.1562C46.9388 26.1562 46.2513 25.8958 45.7773 25.375C45.3086 24.849 45.0716 24.0729 45.0664 23.0469V17.5469H46.5117V23.0078C46.5117 24.2891 47.0326 24.9297 48.0742 24.9297C49.1784 24.9297 49.9128 24.5182 50.2773 23.6953V17.5469H51.7227V26H50.3477L50.3164 25.1641ZM55.2852 17.5469L55.3242 18.4844C55.944 17.7552 56.7799 17.3906 57.832 17.3906C59.0143 17.3906 59.819 17.8438 60.2461 18.75C60.5273 18.3438 60.8919 18.0156 61.3398 17.7656C61.793 17.5156 62.3268 17.3906 62.9414 17.3906C64.7956 17.3906 65.7383 18.3724 65.7695 20.3359V26H64.3242V20.4219C64.3242 19.8177 64.1862 19.3672 63.9102 19.0703C63.6341 18.7682 63.1706 18.6172 62.5195 18.6172C61.9831 18.6172 61.5378 18.7786 61.1836 19.1016C60.8294 19.4193 60.6237 19.849 60.5664 20.3906V26H59.1133V20.4609C59.1133 19.2318 58.5117 18.6172 57.3086 18.6172C56.3607 18.6172 55.7122 19.0208 55.3633 19.8281V26H53.918V17.5469H55.2852Z" fill="#FD9809"/>
</svg>
