<svg width="128" height="49" viewBox="0 0 128 49" fill="none" xmlns="http://www.w3.org/2000/svg">
<path d="M0.000480112 43.1152L0.000480417 36.1303L114.125 36.3988L114.125 30.7571L127.515 39.0854L114.125 48.7571L114.125 43.1152L0.000480112 43.1152Z" fill="#FD9809"/>
<path d="M92.1445 14.4648H84.9844V22H82.7344V4.9375H93.3047V6.78906H84.9844V12.625H92.1445V14.4648Z" fill="#FD9809"/>
<path d="M98.7695 23.7578C98.7695 23.3672 98.6211 23.0651 98.3242 22.8516C98.0326 22.6328 97.5195 22.4453 96.7852 22.2891C96.056 22.1328 95.4753 21.9453 95.043 21.7266C94.6159 21.5078 94.2982 21.2474 94.0898 20.9453C93.8867 20.6432 93.7852 20.2839 93.7852 19.8672C93.7852 19.1745 94.0768 18.5885 94.6602 18.1094C95.2487 17.6302 95.9987 17.3906 96.9102 17.3906C97.8685 17.3906 98.6445 17.638 99.2383 18.1328C99.8372 18.6276 100.137 19.2604 100.137 20.0312H98.6836C98.6836 19.6354 98.5143 19.2943 98.1758 19.0078C97.8424 18.7214 97.4206 18.5781 96.9102 18.5781C96.3841 18.5781 95.9727 18.6927 95.6758 18.9219C95.3789 19.151 95.2305 19.4505 95.2305 19.8203C95.2305 20.1693 95.3685 20.4323 95.6445 20.6094C95.9206 20.7865 96.418 20.9557 97.1367 21.1172C97.8607 21.2786 98.4466 21.4714 98.8945 21.6953C99.3424 21.9193 99.6732 22.1901 99.8867 22.5078C100.105 22.8203 100.215 23.2031 100.215 23.6562C100.215 24.4115 99.9128 25.0182 99.3086 25.4766C98.7044 25.9297 97.9206 26.1562 96.957 26.1562C96.2799 26.1562 95.681 26.0365 95.1602 25.7969C94.6393 25.5573 94.2305 25.224 93.9336 24.7969C93.6419 24.3646 93.4961 23.8984 93.4961 23.3984H94.9414C94.9674 23.8828 95.1602 24.2682 95.5195 24.5547C95.8841 24.8359 96.3633 24.9766 96.957 24.9766C97.5039 24.9766 97.9414 24.8672 98.2695 24.6484C98.6029 24.4245 98.7695 24.1276 98.7695 23.7578ZM107.316 25.1641C106.754 25.8255 105.928 26.1562 104.84 26.1562C103.939 26.1562 103.251 25.8958 102.777 25.375C102.309 24.849 102.072 24.0729 102.066 23.0469V17.5469H103.512V23.0078C103.512 24.2891 104.033 24.9297 105.074 24.9297C106.178 24.9297 106.913 24.5182 107.277 23.6953V17.5469H108.723V26H107.348L107.316 25.1641ZM112.285 17.5469L112.324 18.4844C112.944 17.7552 113.78 17.3906 114.832 17.3906C116.014 17.3906 116.819 17.8438 117.246 18.75C117.527 18.3438 117.892 18.0156 118.34 17.7656C118.793 17.5156 119.327 17.3906 119.941 17.3906C121.796 17.3906 122.738 18.3724 122.77 20.3359V26H121.324V20.4219C121.324 19.8177 121.186 19.3672 120.91 19.0703C120.634 18.7682 120.171 18.6172 119.52 18.6172C118.983 18.6172 118.538 18.7786 118.184 19.1016C117.829 19.4193 117.624 19.849 117.566 20.3906V26H116.113V20.4609C116.113 19.2318 115.512 18.6172 114.309 18.6172C113.361 18.6172 112.712 19.0208 112.363 19.8281V26H110.918V17.5469H112.285Z" fill="#FD9809"/>
</svg>
