<svg width="128" height="49" viewBox="0 0 128 49" fill="none" xmlns="http://www.w3.org/2000/svg">
<path d="M0.000480112 43.1152L0.000480417 36.1303L114.125 36.3988L114.125 30.7571L127.515 39.0854L114.125 48.7571L114.125 43.1152L0.000480112 43.1152Z" fill="#3F5B6D"/>
<path d="M92.1445 14.4648H84.9844V22H82.7344V4.9375H93.3047V6.78906H84.9844V12.625H92.1445V14.4648Z" fill="#3F5B6D"/>
<path d="M99.5615 26C99.4678 25.8125 99.3916 25.4785 99.333 24.998C98.5771 25.7832 97.6748 26.1758 96.626 26.1758C95.6885 26.1758 94.918 25.9121 94.3145 25.3848C93.7168 24.8516 93.418 24.1777 93.418 23.3633C93.418 22.373 93.793 21.6055 94.543 21.0605C95.2988 20.5098 96.3594 20.2344 97.7246 20.2344H99.3066V19.4873C99.3066 18.9189 99.1367 18.4678 98.7969 18.1338C98.457 17.7939 97.9561 17.624 97.2939 17.624C96.7139 17.624 96.2275 17.7705 95.835 18.0635C95.4424 18.3564 95.2461 18.7109 95.2461 19.127H93.6113C93.6113 18.6523 93.7783 18.1953 94.1123 17.7559C94.4521 17.3105 94.9092 16.959 95.4834 16.7012C96.0635 16.4434 96.6992 16.3145 97.3906 16.3145C98.4863 16.3145 99.3447 16.5898 99.9658 17.1406C100.587 17.6855 100.909 18.4385 100.933 19.3994V23.7764C100.933 24.6494 101.044 25.3438 101.267 25.8594V26H99.5615ZM96.8633 24.7607C97.373 24.7607 97.8564 24.6289 98.3135 24.3652C98.7705 24.1016 99.1016 23.7588 99.3066 23.3369V21.3857H98.0322C96.04 21.3857 95.0439 21.9688 95.0439 23.1348C95.0439 23.6445 95.2139 24.043 95.5537 24.3301C95.8936 24.6172 96.3301 24.7607 96.8633 24.7607Z" fill="#3F5B6D"/>
</svg>
