<svg width="128" height="49" viewBox="0 0 128 49" fill="none" xmlns="http://www.w3.org/2000/svg">
<path d="M127.515 43.1152L127.515 36.1303L13.3905 36.3988L13.3905 30.7571L0.000488645 39.0854L13.3905 48.7571L13.3905 43.1152L127.515 43.1152Z" fill="#3F5B6D"/>
<path d="M31.6633 14.4648H24.5032V22H22.2532V4.9375H32.8235V6.78906H24.5032V12.625H31.6633V14.4648Z" fill="#3F5B6D"/>
<path d="M40.6714 26C40.5776 25.8125 40.5015 25.4785 40.4429 24.998C39.687 25.7832 38.7847 26.1758 37.7358 26.1758C36.7983 26.1758 36.0278 25.9121 35.4243 25.3848C34.8267 24.8516 34.5278 24.1777 34.5278 23.3633C34.5278 22.373 34.9028 21.6055 35.6528 21.0605C36.4087 20.5098 37.4692 20.2344 38.8345 20.2344H40.4165V19.4873C40.4165 18.9189 40.2466 18.4678 39.9067 18.1338C39.5669 17.7939 39.0659 17.624 38.4038 17.624C37.8237 17.624 37.3374 17.7705 36.9448 18.0635C36.5522 18.3564 36.356 18.7109 36.356 19.127H34.7212C34.7212 18.6523 34.8882 18.1953 35.2222 17.7559C35.562 17.3105 36.019 16.959 36.5933 16.7012C37.1733 16.4434 37.8091 16.3145 38.5005 16.3145C39.5962 16.3145 40.4546 16.5898 41.0757 17.1406C41.6968 17.6855 42.019 18.4385 42.0425 19.3994V23.7764C42.0425 24.6494 42.1538 25.3438 42.3765 25.8594V26H40.6714ZM37.9731 24.7607C38.4829 24.7607 38.9663 24.6289 39.4233 24.3652C39.8804 24.1016 40.2114 23.7588 40.4165 23.3369V21.3857H39.1421C37.1499 21.3857 36.1538 21.9688 36.1538 23.1348C36.1538 23.6445 36.3237 24.043 36.6636 24.3301C37.0034 24.6172 37.4399 24.7607 37.9731 24.7607Z" fill="#3F5B6D"/>
</svg>
