<svg width="130" height="50" viewBox="0 0 130 50" fill="none" xmlns="http://www.w3.org/2000/svg">
<path d="M0.999992 43.1152L0.999992 36.1303L115.124 36.3988L115.124 30.7571L128.514 39.0854L115.124 48.7571L115.124 43.1152L0.999992 43.1152Z" stroke="#3F5B6D"/>
<path d="M94.1445 14.4648H86.9844V22H84.7344V4.9375H95.3047V6.78906H86.9844V12.625H94.1445V14.4648Z" fill="#3F5B6D"/>
<path d="M95.8174 23.166C95.8174 21.6836 96.1602 20.5059 96.8457 19.6328C97.5312 18.7539 98.4395 18.3145 99.5703 18.3145C100.73 18.3145 101.636 18.7246 102.286 19.5449L102.365 18.4902H103.851V27.7715C103.851 29.002 103.484 29.9717 102.752 30.6807C102.025 31.3896 101.047 31.7441 99.8164 31.7441C99.1309 31.7441 98.46 31.5977 97.8037 31.3047C97.1475 31.0117 96.6465 30.6104 96.3008 30.1006L97.1445 29.125C97.8418 29.9863 98.6943 30.417 99.7021 30.417C100.493 30.417 101.108 30.1943 101.548 29.749C101.993 29.3037 102.216 28.6768 102.216 27.8682V27.0508C101.565 27.8008 100.678 28.1758 99.5527 28.1758C98.4395 28.1758 97.5371 27.7275 96.8457 26.8311C96.1602 25.9346 95.8174 24.7129 95.8174 23.166ZM97.4521 23.3506C97.4521 24.4229 97.6719 25.2666 98.1113 25.8818C98.5508 26.4912 99.166 26.7959 99.957 26.7959C100.982 26.7959 101.735 26.3301 102.216 25.3984V21.0566C101.718 20.1484 100.971 19.6943 99.9746 19.6943C99.1836 19.6943 98.5654 20.002 98.1201 20.6172C97.6748 21.2324 97.4521 22.1436 97.4521 23.3506Z" fill="#3F5B6D"/>
</svg>
