<svg width="130" height="50" viewBox="0 0 130 50" fill="none" xmlns="http://www.w3.org/2000/svg">
<path d="M128.514 43.1152L128.514 36.1303L14.39 36.3988L14.39 30.7571L1 39.0854L14.39 48.7571L14.39 43.1152L128.514 43.1152Z" stroke="#3F5B6D"/>
<path d="M35.1445 14.4648H27.9844V22H25.7344V4.9375H36.3047V6.78906H27.9844V12.625H35.1445V14.4648Z" fill="#3F5B6D"/>
<path d="M35.8174 23.166C35.8174 21.6836 36.1602 20.5059 36.8457 19.6328C37.5312 18.7539 38.4395 18.3145 39.5703 18.3145C40.7305 18.3145 41.6357 18.7246 42.2861 19.5449L42.3652 18.4902H43.8506V27.7715C43.8506 29.002 43.4844 29.9717 42.752 30.6807C42.0254 31.3896 41.0469 31.7441 39.8164 31.7441C39.1309 31.7441 38.46 31.5977 37.8037 31.3047C37.1475 31.0117 36.6465 30.6104 36.3008 30.1006L37.1445 29.125C37.8418 29.9863 38.6943 30.417 39.7021 30.417C40.4932 30.417 41.1084 30.1943 41.5479 29.749C41.9932 29.3037 42.2158 28.6768 42.2158 27.8682V27.0508C41.5654 27.8008 40.6777 28.1758 39.5527 28.1758C38.4395 28.1758 37.5371 27.7275 36.8457 26.8311C36.1602 25.9346 35.8174 24.7129 35.8174 23.166ZM37.4521 23.3506C37.4521 24.4229 37.6719 25.2666 38.1113 25.8818C38.5508 26.4912 39.166 26.7959 39.957 26.7959C40.9824 26.7959 41.7354 26.3301 42.2158 25.3984V21.0566C41.7178 20.1484 40.9707 19.6943 39.9746 19.6943C39.1836 19.6943 38.5654 20.002 38.1201 20.6172C37.6748 21.2324 37.4521 22.1436 37.4521 23.3506Z" fill="#3F5B6D"/>
</svg>
