<svg width="43" height="139" viewBox="0 0 43 139" fill="none" xmlns="http://www.w3.org/2000/svg">
<path d="M6.62199 114.61L6.62199 0.985832H12.6122L12.6122 114.61V115.11H13.1122H17.8541L10.3945 127.103L1.73185 115.11H6.12199H6.62199V114.61Z" stroke="#F1F1F1"/>
<path d="M32.1445 118.465H24.9844V126H22.7344V108.938H33.3047V110.789H24.9844V116.625H32.1445V118.465Z" fill="#F1F1F1"/>
<path d="M30.585 127.249C30.585 125.272 31.042 123.702 31.9561 122.538C32.8701 121.366 34.0811 120.78 35.5889 120.78C37.1357 120.78 38.3428 121.327 39.21 122.421L39.3154 121.015H41.2959V133.39C41.2959 135.03 40.8076 136.323 39.8311 137.269C38.8623 138.214 37.5576 138.687 35.917 138.687C35.0029 138.687 34.1084 138.491 33.2334 138.101C32.3584 137.71 31.6904 137.175 31.2295 136.495L32.3545 135.194C33.2842 136.343 34.4209 136.917 35.7646 136.917C36.8193 136.917 37.6396 136.62 38.2256 136.026C38.8193 135.433 39.1162 134.597 39.1162 133.519V132.429C38.249 133.429 37.0654 133.929 35.5654 133.929C34.0811 133.929 32.8779 133.331 31.9561 132.136C31.042 130.94 30.585 129.312 30.585 127.249ZM32.7646 127.495C32.7646 128.925 33.0576 130.05 33.6436 130.87C34.2295 131.683 35.0498 132.089 36.1045 132.089C37.4717 132.089 38.4756 131.468 39.1162 130.226V124.437C38.4521 123.226 37.4561 122.62 36.1279 122.62C35.0732 122.62 34.249 123.03 33.6553 123.851C33.0615 124.671 32.7646 125.886 32.7646 127.495Z" fill="#F1F1F1"/>
</svg>
